<svg xmlns="http://www.w3.org/2000/svg" xmlns:xlink="http://www.w3.org/1999/xlink" width="195" height="200"><defs><linearGradient id="a" x1="0%" y1="50.001%" y2="50.001%"><stop offset="0%" stop-color="#F4F5F6"/><stop offset="21%" stop-color="#D3D4D4"/><stop offset="45%" stop-color="#B3B3B3"/></linearGradient><linearGradient id="b" x1="97.334%" x2="1.674%" y1="50%" y2="50%"><stop offset="0%" stop-color="#F4F5F6"/><stop offset="23%" stop-color="#E9EBED"/><stop offset="100%" stop-color="#C8CCD2"/></linearGradient><linearGradient id="c" x1="49.997%" x2="49.997%" y1="12.039%" y2="103.014%"><stop offset="0%" stop-color="#FFF"/><stop offset="100%" stop-color="#F37C20"/></linearGradient><linearGradient id="d" x1="0%" y1="49.994%" y2="49.994%"><stop offset="0%" stop-color="#F4F5F6"/><stop offset="23%" stop-color="#E9EBED"/><stop offset="100%" stop-color="#C8CCD2"/></linearGradient><path id="e" d="M99.537 179.453c-41.116 0-74.555-34.34-74.535-76.51.003-7.541-22.074-9.545-22.935-17.228-2.016-17.998 17.65-40.89 30.55-50.654 4.455-3.372 10.771-12.087 18.31-16.36 13.418-7.606 29.85-10.459 40.44-10.451 13.935.009 35.23 22.213 46.398 29.07 21.785 13.374 36.395 37.819 36.382 65.698-.02 42.17-33.49 76.463-74.61 76.435z"/><linearGradient id="f" x1="49.829%" x2="50.099%" y1="12.053%" y2="103.018%"><stop offset="0%" stop-color="#FFF"/><stop offset="100%" stop-color="#F37C20"/></linearGradient><linearGradient id="h" x1="-108.336%" x2="553.521%" y1="28.504%" y2="127.761%"><stop offset="0%" stop-color="#F5F6E2"/><stop offset="32%" stop-color="#F5EED1"/><stop offset="100%" stop-color="#F6DDB0"/></linearGradient><linearGradient id="i" x1="-4.791%" x2="81.793%" y1="16.989%" y2="59.937%"><stop offset="0%" stop-color="#F5F6E2"/><stop offset="32%" stop-color="#F5EED1"/><stop offset="100%" stop-color="#F6DDB0"/></linearGradient><radialGradient id="j" cx="-4.451%" cy="20.461%" r="64.593%" fx="-4.451%" fy="20.461%" gradientTransform="matrix(1 0 0 .65134 0 .071)"><stop offset="0%" stop-color="#FFE9CC"/><stop offset="34%" stop-color="#F4D8B9"/><stop offset="100%" stop-color="#E0BB98"/></radialGradient><linearGradient id="k" x1="15.464%" x2="58.727%" y1="29.64%" y2="59.536%"><stop offset="0%" stop-color="#ECE4C6"/><stop offset="100%" stop-color="#E8D5B3"/></linearGradient><linearGradient id="l" x1="8.257%" x2="59.067%" y1="29.307%" y2="49.458%"><stop offset="0%" stop-color="#F4F5F6"/><stop offset="23%" stop-color="#E9EBED"/><stop offset="100%" stop-color="#C8CCD2"/></linearGradient><linearGradient id="m" x1="16.963%" x2="63.456%" y1="27.462%" y2="46.333%"><stop offset="0%" stop-color="#F4F5F6"/><stop offset="23%" stop-color="#E9EBED"/><stop offset="100%" stop-color="#C8CCD2"/></linearGradient><linearGradient id="n" x1="21.461%" x2="42.165%" y1="35.844%" y2="51.324%"><stop offset="0%" stop-color="#72ACDD"/><stop offset="100%" stop-color="#519ED6"/></linearGradient><linearGradient id="o" x1="17.465%" x2="46.582%" y1="36.378%" y2="46.626%"><stop offset="0%" stop-color="#72ACDD"/><stop offset="100%" stop-color="#519ED6"/></linearGradient><radialGradient id="p" cx="-224.531%" cy="-150.234%" r="27.243%" fx="-224.531%" fy="-150.234%" gradientTransform="matrix(.84355 0 0 1 -.351 0)"><stop offset="0%" stop-color="#FFE9CC"/><stop offset="34%" stop-color="#F4D8B9"/><stop offset="100%" stop-color="#E0BB98"/></radialGradient><linearGradient id="q" x1="0%" x2="99.801%" y1="49.994%" y2="49.994%"><stop offset="0%" stop-color="#F4F5F6"/><stop offset="23%" stop-color="#E9EBED"/><stop offset="100%" stop-color="#C8CCD2"/></linearGradient></defs><g fill="none" fill-rule="evenodd"><path fill="url(#a)" d="M191.42 99.826c0 53.24-42.085 96.396-94 96.396-51.913 0-93.999-43.169-93.999-96.396 0-53.228 42.086-96.4 94-96.4s94 43.16 94 96.4z"/><path fill="#000" fill-rule="nonzero" d="M97.42 3.426c51.915 0 94 43.168 94 96.4 0 53.231-42.085 96.396-94 96.396-51.913 0-93.999-43.169-93.999-96.396 0-53.228 42.086-96.4 94-96.4zm0-3.426C71.384 0 46.91 10.392 28.507 29.267 10.102 48.143 0 73.177 0 99.826c0 26.65 10.122 51.707 28.506 70.558 18.385 18.852 42.877 29.267 68.915 29.267 26.038 0 50.514-10.396 68.918-29.267 18.405-18.871 28.507-43.913 28.507-70.558 0-26.646-10.122-51.707-28.507-70.559C147.955 10.416 123.46 0 97.421 0z"/><path fill="url(#b)" d="M186.286 99.826c0 50.328-39.787 91.132-88.865 91.132-49.078 0-88.862-40.792-88.862-91.132S48.347 8.693 97.421 8.693s88.865 40.8 88.865 91.133z"/><path fill="#666" fill-rule="nonzero" d="M97.42 191.398c-49.24 0-89.304-41.077-89.304-91.572C8.116 49.33 48.18 8.25 97.421 8.25c49.24 0 89.304 41.08 89.304 91.576 0 50.495-40.06 91.572-89.304 91.572zm0-182.265c-48.753 0-88.422 40.685-88.422 90.693 0 50.008 39.669 90.693 88.423 90.693 48.754 0 88.422-40.681 88.422-90.693S146.18 9.133 97.421 9.133z"/><path fill="#000" d="M180.417 99.826c0 47.006-37.157 85.113-82.996 85.113s-82.992-38.107-82.992-85.113 37.157-85.113 82.992-85.113c45.835 0 82.996 38.095 82.996 85.113z"/><path fill="#231F20" d="M172.142 102.974c0 41.101-32.49 74.42-72.565 74.42-40.076 0-72.562-33.319-72.562-74.42 0-41.1 32.486-74.416 72.562-74.416 40.075 0 72.565 33.315 72.565 74.416z"/><path fill="#231F20" fill-rule="nonzero" d="M99.577 177.956c-40.314 0-73.108-33.663-73.108-74.982s32.794-74.966 73.108-74.966c40.313 0 73.11 33.632 73.11 74.966 0 41.335-32.797 74.982-73.11 74.982zm0-148.835c-39.708 0-72.012 33.136-72.012 73.87 0 40.732 32.304 73.853 72.012 73.853s72.015-33.137 72.015-73.87c0-40.732-32.307-73.869-72.015-73.869v.016z"/><path fill="#231F20" d="M172.142 102.974c0 41.101-32.49 74.42-72.565 74.42-40.076 0-72.562-33.319-72.562-74.42 0-41.1 32.486-74.416 72.562-74.416 40.075 0 72.565 33.315 72.565 74.416z"/><path fill="#231F20" fill-rule="nonzero" d="M99.577 177.956c-40.314 0-73.108-33.663-73.108-74.982s32.794-74.966 73.108-74.966c40.313 0 73.11 33.632 73.11 74.966 0 41.335-32.797 74.982-73.11 74.982zm0-148.835c-39.708 0-72.012 33.136-72.012 73.87 0 40.732 32.304 73.853 72.012 73.853s72.015-33.137 72.015-73.87c0-40.732-32.307-73.869-72.015-73.869v.016z"/><path fill="#075D72" d="M99.272 173.33c-37.83-.166-68.468-31.865-68.301-70.66.166-38.797 31.073-70.219 68.902-70.06 37.83.158 68.472 31.881 68.306 70.677-.167 38.796-31.082 70.218-68.907 70.044z"/><path fill="#F37C20" d="M99.272 173.33c-37.83-.166-68.468-31.865-68.301-70.66.166-38.797 31.073-70.219 68.902-70.06 37.83.158 68.472 31.881 68.306 70.677-.167 38.796-31.082 70.218-68.907 70.044z"/><path fill="url(#c)" d="M98.48 137.925c42.6 0 48.921-14.376 67.325-34.65.159-37.453-29.42-68.055-65.94-68.214h-.288c-36.354 0-66.055 30.33-66.23 67.62-.007 0 25.125 35.422 65.134 35.244z"/><path fill="#FFF" d="M100.41 165.283h-.292c-35.258-.154-63.966-29.037-65.11-64.887a83.5 83.5 0 0 0-.039 1.98c-.158 37.002 29.072 67.24 65.15 67.402h.292c35.927 0 65.264-29.976 65.434-66.816 0-.843 0-1.679-.04-2.514-1.187 35.944-30.12 64.835-65.394 64.835z" opacity=".52"/><path fill="url(#d)" d="M107.725 77.271c1.23-1.715 4.778-6.206 5.122-6 .79.658 2.812 5.054 2.812 5.054s-1.677-.61-2.769-.15c-1.091.459-3.595 3.904-3.595 3.904-.748-1.422-.945-1.96-1.57-2.808z"/><path fill="#231F20" d="M172.142 102.974c0 41.101-32.49 74.42-72.565 74.42-40.076 0-72.562-33.319-72.562-74.42 0-41.1 32.486-74.416 72.562-74.416 40.075 0 72.565 33.315 72.565 74.416z"/><path fill="#231F20" fill-rule="nonzero" d="M99.577 177.956c-40.314 0-73.108-33.663-73.108-74.982s32.794-74.966 73.108-74.966c40.313 0 73.11 33.632 73.11 74.966 0 41.335-32.797 74.982-73.11 74.982zm0-148.835c-39.708 0-72.012 33.136-72.012 73.87 0 40.732 32.304 73.853 72.012 73.853s72.015-33.137 72.015-73.87c0-40.732-32.307-73.869-72.015-73.869v.016z"/><path fill="#231F20" d="M172.142 102.974c0 41.101-32.49 74.42-72.565 74.42-40.076 0-72.562-33.319-72.562-74.42 0-41.1 32.486-74.416 72.562-74.416 40.075 0 72.565 33.315 72.565 74.416z"/><path fill="#231F20" fill-rule="nonzero" d="M99.577 177.956c-40.314 0-73.108-33.663-73.108-74.982s32.794-74.966 73.108-74.966c40.313 0 73.11 33.632 73.11 74.966 0 41.335-32.797 74.982-73.11 74.982zm0-148.835c-39.708 0-72.012 33.136-72.012 73.87 0 40.732 32.304 73.853 72.012 73.853s72.015-33.137 72.015-73.87c0-40.732-32.307-73.869-72.015-73.869v.016z"/><path fill="#075D72" d="M99.272 173.33c-37.83-.166-68.468-31.865-68.301-70.66.166-38.797 31.073-70.219 68.902-70.06 37.83.158 68.472 31.881 68.306 70.677-.167 38.796-31.082 70.218-68.907 70.044z"/><path fill="#F37C20" d="M99.537 179.453c-41.116 0-74.555-34.34-74.535-76.51.02-42.17 33.486-76.464 74.606-76.436 41.12.028 74.559 34.34 74.54 76.51-.02 42.171-33.49 76.464-74.611 76.436z"/><mask id="g" fill="#fff"><use xlink:href="#e"/></mask><path fill="url(#f)" d="M98.528 140.97c46.31-.186 53.121-15.841 73.036-37.96 0-40.709-32.26-73.846-71.956-73.858h-.32C59.77 29.311 27.6 62.42 27.58 102.942c.008 0 27.462 38.397 70.947 38.028z" mask="url(#g)"/><g fill="#FFF" mask="url(#g)" opacity=".52"><path d="M98.67 166.594h-.308c-37.098-.162-67.309-30.554-68.511-68.281-.024.701-.04 1.402-.044 2.103-.162 38.939 30.591 70.756 68.555 70.93h.308c37.806 0 68.69-31.544 68.856-70.312 0-.887 0-1.766-.044-2.646-1.246 37.798-31.694 68.206-68.812 68.206z"/></g><g mask="url(#g)"><path fill="#536FB4" d="M122.695 157.39l-3.876-1.854s-2.883-2.558-6.724-2.558c-3.84 0-8.057.554-11.613 3.319-3.556 2.764-10.399 12.182-12.214 24.431 0 0 7.665 4.044 20.133 6.12 9.061 1.504 20.71 1.39 33.51.763 6.83-.289 27.893-4.04 36.84-11.635 8.947-7.596 2.25-23.68-15.683-31.866 0 0-12.38-3.928-25.99 1.497l6.403 4.832 1.345 1.339-5.289 3.243-7.978 2.448-9.358-.578.494.396"/><path fill="#667BBB" d="M129.036 147.805l-.87.57s2.705 1.827 3.599 2.924l10.624-.587-7.665-3.33-5.688.423z"/><path fill="url(#h)" d="M76.05 74.364l7.693-9.9s-4.192-14.48-3.686-16.765c0 0-7.887 10.634-4.197 26.677" transform="translate(3.955 14.653)"/><path fill="url(#i)" d="M134.518 101.568a75.583 75.583 0 0 1-2.586-20.083v-.736c.02-4.464.059-11.937-7.33-15.751l-.095-.051-.055.099a4.91 4.91 0 0 1-2.579 2.02l-.107.035.032.11a11.86 11.86 0 0 1 .395 3.114 8.297 8.297 0 0 1-1.542 5.077 1.954 1.954 0 0 1-1.246-.772 8.652 8.652 0 0 0 2.167-5.584 8.299 8.299 0 0 0-.435-2.638l-.051-.139c-1.076-2.899-1.444-3.873-2.373-3.928-.93-.056-4.616 2.059-5.906 3.877a4.294 4.294 0 0 1-.035-.574c-.006-.437.069-.87.221-1.28a7.795 7.795 0 0 1 2.373-1.48l.305-.096-.3-.119s-1.777-.748-4.775-4.91l-.031-.052h-.06c-.708.008-1.415.066-2.116.174-.79.365-1.736 1.367-2.337 2.436-.048.087-1.207 2.11-1.207 2.772.04.103 2.67 5.6 1.143 10.693a6.043 6.043 0 0 1-4.22 4.111 9.31 9.31 0 0 1-8.567-1.929 23.693 23.693 0 0 1-6.032-8.257l-.072-.174-6.328 7.378c-.044.095-2.326 6.067-3.066 11.513-.648-.258-5.114-1.98-8.567-2.242-2.437-.174-3.892-.277-4.648.44-.419.396-.609 1.041-.609 2.071v.444c0 2.653 0 5.168 2.46 8.823 2.46 3.656 6.155 7.886 8.936 8.618 1.875.483 5.043.369 7.594.273l2.769-.059c1.016 0 2.243-1.624 2.243-3.632l.047-2.186c.245.158.424.398.506.677l.028.436v.119c0 .594.075 1.584 1.23 3.727 1.65 3.053 7.646 12 12.02 14.986 4.237 2.903 11.044 2.899 15.541 2.895h.447c4.648 0 12.42 0 15.3-1.553 2.642-1.43 4.374-3.002 4.263-5.964-.146-2.693-.375-3.758-2.745-12.729z" transform="translate(3.955 14.653)"/><path fill="url(#j)" d="M79.926 47.529s-1.582 2.621.044 7.956c1.625 5.335 3.924 11.604 6.024 16.8 2.1 5.196 2.053 5.002 2.97 12.82.918 7.818 8.635 14.436 19.844 23.208 5.518 4.309 13.413 12.21 18.986 13.287 0 0 5.47.048 7.658-2.376 2.187-2.424 2.654-4.396 2.33-5.652-.325-1.255-3.83-17.08-4.474-20.97-.645-3.89-.269-15.156-.866-17.358s-4.422-9.11-5.7-9.68c-1.277-.57-2.235-.89-2.235-.89s-.727.744-1.507 1.449c-.403.41-.988.586-1.55.467l-1.14-2.48s-.597-1.98-1.186-2.011c-.59-.032-3.33.729-3.33.729s-1.321-1.026-2.006-1.683c-.684-.658-3.196-4.163-3.196-4.163s-4.88-.142-6.431 5.711c0 0 2.373 4.63 1.732 8.713-.64 4.083-2.828 6.689-6.842 6.642-4.015-.048-7.619-3.367-10.767-8.278-3.149-4.91-2.741-8.614-3.164-11.37-.424-2.756.368-6.178 3.01-7.675 2.642-1.497 8.35.09 13.23 5.94l.641.891s4.062-5.71 5.11-6.225c1.049-.515 1.167-.107 1.167-.107s-.138-1.54-.138-2.804c0-1.264.823-3.929 1.978-4.729 1.155-.8 3.287-.416 3.287-.416s-2.235-6.835-2.283-6.697c-.047.139-1.004-2.804-2.144-3.228l-2.46-1.778S83.122 35.224 79.926 47.53z" transform="translate(3.955 14.653)"/><path fill="#FFD72C" d="M105.557 53.738s3.77-3.525 8.041-12.198c4.272-8.673 4.695-15.64-.672-18.218-5.368-2.578-6.954-2.752-10.723-3.168-3.77-.416-15.585-3.01-18.013-3.612-2.429-.602-10.72-1.382-11.906-.784-1.187.598-12.902 9.192-12.902 9.192s-14.33 13.323-21.616 17.362c-7.286 4.04-10.553 5.41-11.894 5.743 0 0 11.142 4.384 22.035 3.267l-.585 1.117S32.825 66.697 4.5 74.348c0 0 9.556 4.467 20.781 2.582h.926s-8.8 5.51-18.001 7.913c0 0 11.649 3.006 15.75 4.555 4.102 1.548 7.796 3.441 12.907 7.647l5.11 2.836s-8.627-1.188-12.4 2.32c0 0 10.474 0 17.261 3.438 6.788 3.438 13.405 7.042 18.013 5.94l.332-.601s1.005-3.093 2.18-3.96c0 0-.166-.86-.396-2.666s-.083-5.414 1.088-5.758c1.17-.345 4.774-.428 4.774-.428s2.266-1.549 4.612-8.503c2.345-6.955 3.686-11.691 3.686-14.867 0-3.177-1.008-5.07 3.268-11.775a31.854 31.854 0 0 1 5.446-6.336c1.863-1.794 3.275-2.994 4.691-3.169 2.599-.344 5.114.258 7.626.341a18.2 18.2 0 0 0 3.402-.119z"/><path fill="#8BC6EC" d="M89.233 76.986c-8.306 9.687-15.248 20.594-15.32 20.717l-.114.178 2.59.792.068-.091c4.968-7.3 14.057-17.335 14.148-17.426l.068-.075-.036-.095c-.395-.994-1.131-3.885-1.14-3.917l-.066-.293-.198.21zM67.34 108a6.585 6.585 0 0 0-1.776 3.279c-.502 2.123.028 9.818.61 12.641.68 3.26 1.103 4.404 1.684 4.515.415.091 1.123-.451 1.404-.7.111-.092 1.068-.908 1.068-1.387l-.289-2.317c-.356-2.633-.897-6.626-.937-8.431l-.044-1.56c-.059-1.347-.07-1.755.262-2.726v-.07l-1.836-3.387-.146.143z"/><path fill="#E1B32A" d="M82.125 92.308c-1.681 1.933-4.691 6.103-4.572 6.59l.027.12.123.055c.829.315 1.624.713 2.373 1.188l.317.202.035-.372c.202-2.377 2.041-7.505 2.061-7.553l-.364-.23zm19.785-38.522s3.516-6.163 5.07-10.349c1.555-4.186 2.354-11.742 1.08-13.806-1.273-2.063-2.919-3.457-7.938-5.172-5.02-1.715-17.158-5.232-18.25-5.204a29.002 29.002 0 0 1-4.422-1.422c-1.163-.495-3.56-1.513-5.538-1.481 0 0 1.306-1.98 9.098-.396 7.792 1.584 17.601 3.636 20.963 3.96 3.362.325 9.976 2.179 12.301 4.095 2.326 1.917 3.77 9.969 1.729 13.517-2.041 3.549-5.613 9.588-5.613 9.588s-2.887 4.97-4.647 6.602c-1.273.147-2.556.17-3.833.068z"/><path fill="#E1B32A" d="M97.18 53.378s-.816-6.622-1.504-9.176c-.688-2.555-6.063-10.008-9.995-10.448 0 0-1.978.234-5.407 1.71-3.43 1.478-8.085 4.429-7.408 5.68.328.606 1.605-.57 4.948-.503 3.342.067 10.68 2.523 17.043 12.84a10.753 10.753 0 0 1 2.322-.103z"/><path fill="#E1B32A" d="M94.691 53.413s-8.702-6.958-14.583-5.477c-5.882 1.481-8.22 8.04-9.73 10.654-1.511 2.613-9.15 9.714-10.557 10.887-.32.97.233.84.561 2.72.329 1.882.495 5.882.495 5.882a73.552 73.552 0 0 0 11.763-9.244c5.336-5.307 10.715-10.919 12.384-12.13 1.67-1.212-7.12 8.23-9.406 11.12-2.286 2.891-8.65 10.353-13.792 12.74-1.25.54-1.147.468-1.187 1.617-.04 1.148-1.115 8.317-1.309 9.235 0 0 8.192-2.42 12.843-5.81 0 0-3.08 4.804-7.796 7.921a38.028 38.028 0 0 1-4.746 2.376s0 5.343 1.74 7.062c0 0 2.915.032 5.142-.88l.1.27a9.387 9.387 0 0 1-4.063 2.29s1.143 2.181 4.588 2.082a22.269 22.269 0 0 1-.427-5.077c.13-2.487.162-3.053 1.736-3.43a25.248 25.248 0 0 1 4.161-.396s1.583-1.477 3.703-6.732c2.12-5.256 3.643-9.474 4.264-14.175.62-4.7-.068-5.647.98-8.503 1.049-2.855 3.442-7.33 8.65-12.233 1.607-1.513 3.442-2.773 4.455-2.86"/><path fill="url(#k)" d="M68.135 90.78c0 .167 1.899 7.026 5.19 9.11 3.29 2.082 6.89 1.583 8.895 1.163.91-.194 2.437.46 2.037-1.584-.395-2.174-1.886-4.693-2.871-4.618-.985.076-2.876-.621-4.01-2.447-1.136-1.826-1.551-2.753-3.521-2.717-1.97.036-5.866-.689-5.72 1.093z" transform="translate(3.955 14.653)"/><path fill="url(#l)" d="M97.567 54.182l-.051-.06c-.028-.035-2.619-3.128-6.614-3.564-1.685-.178-3.089.325-4.066 1.458-1.103 1.287-2.163 3.96-.93 9.434 1.322 5.853 3.351 10 6.207 12.673l.194.182v-.27c0-.106-.143-10.605 5.22-19.801l.04-.052z" transform="translate(3.955 14.653)"/><path fill="url(#m)" d="M116.81 46.095l-.047-.06c-1.938-2.423-5.107-3.08-7.065-1.453-1.958 1.628-1.083 6.626-1.072 6.67a33.59 33.59 0 0 1 2.6 4.847c.22.554.157.76.106.836a.23.23 0 0 1-.194.07l-.245-.03.134.205c1.033 1.644 3.465 4.095 3.489 4.119l.269.27-.075-.377c-1.634-8.21 2.021-14.958 2.06-15.026l.04-.071z" transform="translate(3.955 14.653)"/><path fill="url(#n)" d="M104.75 67.366c-.819-4.602-3.243-7.81-4.576-8.748a1.06 1.06 0 0 0-.744-.281c-.906.174-6.459 6.732-6.459 15.33 0 .396 0 .82.04 1.232.059.107 3.223 3.457 6.87 2.927a5.268 5.268 0 0 0 3.596-2.297c1.376-1.969 1.843-4.947 1.273-8.163z" transform="translate(3.955 14.653)"/><path fill="url(#o)" d="M120.24 50.4c-.61-.851-1.108-1.228-1.583-1.188-.597.051-1.048.792-1.582 1.944-2.017 3.707-1.883 10.472-1.883 10.539.653.792.859.852.973.792.044-.024 2.002-1.041 2.983-.491.98.55 2.42 4.356 2.432 4.404l.032.083h.115c.04 0 1.052-.075 1.85-1.386 2.457-3.929-1.98-12.784-3.338-14.697z" transform="translate(3.955 14.653)"/><path fill="#F4D8AB" d="M122.418 76.835s-5.039 1.802-5.628 2.4c0 0-1.816 4.091 1.645 7.921 0 0 1.456-7.204 4.632-10.214l-.649-.107zm-18.17 29.042s10.679 6.855 21.398 5.715c5.332-.48 8.378-8.115 6.918-16.531l-.297-1.188s.396 6.851-3.63 11.845c-4.027 4.994-10.969 5.545-16.47 3.066-5.503-2.48-7.92-2.907-7.92-2.907z"/><path fill="#F4EFC5" d="M90.874 120.586s7.824 10.166 12.828 19.279c5.616 10.245 5.379 12.673 5.379 12.673s5.854-1.584 12.657 4.539c0 0 9.157.974 10.68-.238 1.522-1.212-1.582-7.386-5.676-8.364-2.54-.606-3.43.673-3.43.673l-.055.055s-5.26-6.788-7.982-12.364c0 0-9.097 1.64-16.787-10.364l-5.79-8.428-1.824 2.539z"/><path fill="url(#p)" d="M103.884 121.758s6.028 11.882 10.759 17.945l3.31 2.772s6.974.606 8.979.365c2.005-.242 3.674-2.377 1.365-5.394 0 0-3.845-.61-5.083.97 0 0-4.315-3.881-12.823-15.644l-6.982-1.814.475.8z" transform="translate(3.955 14.653)"/><path fill="#536FB4" d="M122.628 157.485l-.328-.254.395.04c.048 0 4.929.487 8.05.309 1.15-.064 1.977-.527 2.373-1.327.554-1.061.34-2.697-.566-4.257a3.977 3.977 0 0 0-.858-.793s5.68-1.104 9.987-.59a74.628 74.628 0 0 1 3.244 1.664c.442.77.973 1.485 1.582 2.13a69.453 69.453 0 0 1 2.863 3.442l.471.606h-.237s-1.333 0-1.978.32c0 .357 1.187 1.387 2.33 2.377l1.226 1.081 1.554 1.45c2.07 1.944 4.897 4.61 7.911 6.673a49.675 49.675 0 0 0 9.189 4.943c.084.039.166.084.245.134"/><path fill="#C8CCD2" d="M171.908 173.021c-2.432-5.184-10.347-15.576-10.43-15.687l-.071-.095h-.095l-3.165.135.396.372 2.583 2.456a.63.63 0 0 1 .213.376c-.182.225-.985.364-1.479.396l-.395-.258-3.323-3.168h-.071c-.906-.115-1.258.103-1.325.147l-.214.166.19.19c.032.036 2.911 2.919 4.213 4.705-.625.352-1.326.471-1.69.222-1.012-.99-5.015-4.408-5.181-4.55l-.063-.052h-.087c-.73.003-1.457.053-2.18.15-.309.036-.614.102-.91.198a.479.479 0 0 0-.36.396c-.047.301.246.598.424.74.024 0 1.052 1.094 4.311 3.961 3.26 2.868 9.493 7.204 13.085 9.283 2.982 1.747 5.217 2.377 5.802 2.092a.36.36 0 0 0 .198-.266 3.207 3.207 0 0 0-.376-1.909z"/><path fill="#C33047" d="M161.078 160.11c-.059-.063-5.933-5.877-8.674-7.992l-.055-.035h-.06c-.395-.032-.814.507-.929.677l-.087.11 1.483 2.947.222-.25s.395-.459.625-.26l5.933 5.496h.103c.473-.05.94-.152 1.392-.304l.289-.147-.242-.242zm-2.65 2.056c-2.163-2.63-7.515-7.564-9.967-9.335-1.321-.958-2.25-1.362-2.77-1.188a.514.514 0 0 0-.327.305V152.019c-.024.713.712 1.533 1.641 2.567l1.665 1.98c1.226 1.671 2.449 1.56 3.165 1.509a.853.853 0 0 1 .518 0l2.63 2.665c1.396 1.477 1.95 2.04 2.263 2.091.439.08 1.064-.055 1.214-.328a.321.321 0 0 0-.032-.337z"/><path fill="#FFF" d="M151.922 161.033s14.678 13.378 20.093 14.119c0 0 1.234 1.905-5.89-1.81-7.123-3.715-15.853-11.572-17.961-14.103-.34-.396.305-.626.305-.626l1.186-.09 2.267 2.51z"/><path fill="#E92A50" d="M145.633 151.6s4.572 4.114 5.877 6.47l-1.677-.074-3.473-4.111-1.163-1.957.436-.328z"/><path fill="#667BBB" d="M144.323 149.01s14.56-3.937 25.224-1.054c0 0-4.7-4.883-15.881-5.295-11.182-.412-16.91 3.299-16.91 3.299l7.567 3.05zm-32.33 6.526s-12.702 12.832-13.663 24.95l-10.062.638s4.141-20.04 11.834-24.38 11.89-1.208 11.89-1.208z"/><path fill="#000212" d="M36.385 61.358c6.882-4.475 7.685-6.178 10.45-8.004 2.765-1.826 4.24-2.966 8.421-7.501 4.181-4.535 14.88-11.287 24.773-12.238 9.892-.95 15.125 7.949 16.612 16.333 0 0 .985-5.608-4.058-12.234-5.043-6.625-14.322-5.798-22.546-2.455-8.223 3.343-12.388 7.251-20.299 14.44 0 0-10.88 2.582-23.3-1.644 0 0 10.817-3.588 21.517-12.547 10.699-8.958 18.685-17.334 23.42-18.72 4.734-1.386 10.635 0 19.796 1.825 9.16 1.826 12.724 1.957 14.318 2.27 1.594.313 7.69 2.273 9.284 5.362 1.594 3.09 2.998 5.228-7.682 26.036 0 0 2.706-2.836 3.627-5.173a4.557 4.557 0 0 1 1.583 1.834 1.648 1.648 0 0 1 1.23-.443 9.078 9.078 0 0 0-1.72-1.953s5.406-6.432 6.577-11.98c1.17-5.549.791-10.59-9.592-13.43a16.482 16.482 0 0 0-4.746-1.39c-1.847-.25-7.994-.943-12.788-2.016-4.794-1.073-13.096-3.592-17.89-2.709-4.794.883-8.975 4.979-11.558 7.184-2.583 2.206-18.111 18.92-36.31 25.85 0 0 9.528 5.299 21.145 4.099 0 0-11.866 13.81-42.536 22.004 0 0 1.341.44 5.842-.871 5.724-1.66 15.794-5.68 26.43-11.929z"/><path fill="#000212" d="M103.532 50.328c-.12.503.063.63.063.63s4.857-7.564 5.597-15.006c.74-7.442-1.108-8.638-7.12-11.09-6.012-2.45-21.636-7.25-25.445-5.94.678.189 1.381.274 2.085.254 1.352 0 15.307 2.84 23.669 6.618 3.56 1.703 6.269 3.093 5.656 10.213-.613 7.121-3.967 13.438-4.505 14.321zM87.959 62.055c-1.977 2.772-1.582 4.095-1.582 4.095 2.025-3.085 4.18-6.301 6.451-7.129 2.27-.827 7.994.317 7.994.317s-1.582-1.263-5.905-1.889c-4.323-.626-4.988 1.83-6.958 4.606z"/><path fill="#000212" fill-rule="nonzero" d="M163.408 144.003c-13.302-4.435-26.208 1.149-26.208 1.149a18.462 18.462 0 0 0-1.907-.57l-2.887 2.519-4.426.257c-3.319.19-4.177 1.323-4.177 1.323s2.334.063 3.129.44c4.307 2.332 6.4 6.494 5.043 7.762-1.357 1.267-9.956-.325-10.205-.377-4.98-5.306-12.17-4.55-12.17-4.55-4.245-14.503-18.33-31.145-18.33-31.145 1.78-.503 1.78-1.83 1.78-1.83s.74 1.01 5.166 7.696c4.426 6.685 8.175 8.384 8.175 8.384 6.455 5.485 9.284 5.05 9.284 5.05l2.337 3.017c4.545 5.862 7.911 8.9 7.911 8.9s-1.353-1.838-2.769-3.41c-3.955-4.48-7.068-10.908-7.068-10.908s5.348-.435 12.906-.566c7.559-.13 9.406-1.073 12.048-3.533 2.643-2.459.791-9.833-.553-14.63-1.345-4.795-1.903-9.33-2.77-15.884-.865-6.555.187-10.527-1.977-17.082-1.768-5.39-5.779-7.382-5.779-7.382.613-5.1-1.408-9.457-4.975-14.942-3.568-5.486-6.954-5.992-6.954-5.992l-2.579-5.731s.74-.396 2.397.123c1.657.518 2.4 1.326 2.891.946-.984-1.01-4.117-2.146-6.028-2.523-1.91-.376-2.891 1.189-4.236 3.09-1.345 1.9-.79 3.405-.79 3.405 1.581-4.031 4.18-5.168 4.18-5.168l2.215 5.798a3.63 3.63 0 0 0-3.813 2.333c-.989 2.27-.435 5.544-.435 5.544s-.178-.447-.977.313c-.8.76-3.963 4.864-4.758 5.988-5.043-7.437-12.037-9.16-15.426-5.738-3.517 3.564-1.507 10.447-1.507 10.447l-8.204 9.854c1.108-4.753-.126-15.446-.126-15.446s-.918 3.656-5.47 10.337c-4.553 6.681-13.955 9.588-21.7 10.784-7.744 1.196-19.978-1.188-19.978-1.188s3.322 2.016 15.797 2.582c12.476.566 19.983-5.295 19.983-5.295s-2.334 4.226-8.67 6.871c-6.337 2.646-19.24-1.006-24.71-1.703-5.47-.697-4.611-1.006-10.145-3.528a36.92 36.92 0 0 0-10.284-3.026 5.233 5.233 0 0 0 2.03.82c4.793.95 12.047 4.412 13.522 5.734 1.476 1.323 7.01 6.12 11.558 7.636 13.219 5.418 23.61 1.505 23.61 1.505-4.612 3.98-15.739 2.02-20.414.634-4.675-1.387-7.745-1.953-7.745-1.953s8.421 2.962 12.175 3.842c11.123 2.21 15.984-1.89 15.984-1.89-.186 1.585.672 3.66.672 3.66-1.582 1.584-2.21 4.539-2.21 4.539-6.642.059-9.711-2.02-12.358-3.596-2.646-1.577-8.543-3.96-15.489-5.359-6.945-1.398-7.934 0-7.934 0 4.548-.317 14.449 1.64 22.13 6.119 7.681 4.48 13.527 3.588 13.527 3.588-.613 3.85.309 13.56 1.413 16.143 1.103 2.582 3.014 1.073 3.998.316.985-.756 1.78-1.259 1.353-2.376-1.186-3.406-1.416-13.861-1.416-13.861 2.22 3.69 7.385 7.41 8.943 7.865 1.559.456 4.612.321 6.455.19 1.844-.13 5.103.44 5.103.44 14.259 17.275 17.886 31.52 17.886 31.52s-18.59 3.795-20.801 29.2c0 0 43.457 18.219 85.831-1.235 25.604-13.097-.886-33.184-10.074-36.246zM124.1 65.124c1.396 1.98 5.755 10.693 3.318 14.575-.791 1.279-1.764 1.33-1.764 1.33s-1.448-3.885-2.488-4.463c-1.04-.578-3.065.475-3.065.475s-.1.159-.827-.693c0 0-.154-6.752 1.867-10.48.886-1.916 1.562-2.712 2.959-.744zm-10.375-5.802c1.918-1.584 5.03-.903 6.902 1.438a24.186 24.186 0 0 0-2.065 15.109s-2.44-2.448-3.477-4.095c0 0 .673.103.21-1.066a33.178 33.178 0 0 0-2.607-4.831s-.878-4.959 1.04-6.555h-.003zM103.4 73.101c.83-.155 4.205 3.41 5.186 8.938.98 5.529-1.14 9.79-4.77 10.325-3.632.535-6.745-2.82-6.745-2.82-.565-9.204 5.502-16.277 6.333-16.443h-.004zm-8.571-7.763c3.995.424 6.538 3.51 6.538 3.51-5.45 9.31-5.237 19.845-5.237 19.845-2.373-2.234-4.671-5.96-6.178-12.61-1.717-7.68.921-11.173 4.877-10.745zm-5.498 11.755s.728 2.926 1.143 3.936c0 0-9.13 10.056-14.16 17.45 0 0-1.298-.424-2.287-.693a202.8 202.8 0 0 1 15.32-20.693h-.016zm-7.04 15.374s-1.864 5.148-2.073 7.608a14 14 0 0 0-2.437-1.228c-.198-.067 2.334-3.877 4.51-6.38zm-15.874 9.315c-17.894 4.994-33.292-8.087-33.292-8.087 1.82-.428 12.503 2.705 19.037 3.08 6.534.377 9.184.112 16.755-6.546 7.57-6.657 11.621-16.012 11.621-16.012-1.452 15.165-8.405 23.569-8.405 23.569s-4.054-.226-4.992.641c-.937.868-.724 3.355-.724 3.355zm3.754 24.554c0 .507-1.729 2.048-2.282 1.937-.554-.111-1.005-1.715-1.559-4.4-.553-2.685-1.115-10.456-.617-12.567a6.541 6.541 0 0 1 1.729-3.2c.949 1.656 1.728 3.145 1.728 3.145-.447 1.31-.28 1.655-.221 4.356.06 2.701 1.222 10.222 1.222 10.741v-.012zm19.381-7.01c-2.373-.06-7.677.476-10.323-.218-2.646-.693-6.277-4.752-8.868-8.562-2.591-3.81-2.429-6.424-2.429-9.192s1.404-2.657 5.142-2.376c3.738.28 8.666 2.285 8.666 2.285.724-5.545 3.062-11.6 3.062-11.6a1509.08 1509.08 0 0 1 6.222-7.232 23.69 23.69 0 0 0 6.067 8.293c4.256 3.676 11.411 2.986 12.97-2.233 1.558-5.22-1.143-10.741-1.143-10.741 0-.642 1.186-2.717 1.186-2.717.554-.982 1.492-2.016 2.283-2.376a18.279 18.279 0 0 1 2.076-.162c3.058 4.253 4.822 4.95 4.822 4.95a7.368 7.368 0 0 0-2.437 1.537 4.136 4.136 0 0 0-.158 2.186c1.092-1.814 5.087-4.1 5.969-4.048.882.052 1.246 1.066 2.333 3.992 1.606 4.84-1.768 8.194-1.768 8.194a2.08 2.08 0 0 0 1.46.9c2.694-3.454 1.187-8.345 1.187-8.345a4.98 4.98 0 0 0 2.642-2.08c7.732 3.989 7.262 11.882 7.262 16.385a75.734 75.734 0 0 0 2.598 20.11c2.33 8.832 2.591 10 2.694 12.718.103 2.716-1.349 4.309-4.2 5.845-2.852 1.537-10.79 1.533-15.252 1.533-4.462 0-11.57.095-15.929-2.883-4.359-2.979-10.375-11.973-11.98-14.939-1.606-2.966-1.092-3.667-1.247-4.253a1.453 1.453 0 0 0-.727-.852s-.048.48-.048 2.376c0 1.897-1.139 3.521-2.128 3.521l-.004-.016zm-.427 61.676s4.007-24.19 15.066-25.676c0 0 9.817-.685 17.51 11.157 7.694 11.841 9.814 20.221 9.814 20.221s-13.816 5.553-42.386-5.69l-.004-.012zm80.69-6.416a22.407 22.407 0 0 1-3.418-1.656c-3.508-2.06-9.766-6.368-13.052-9.275-3.287-2.907-4.308-3.96-4.308-3.96s-.68-.523-.138-.721a12.59 12.59 0 0 1 3.018-.333s4.153 3.54 5.205 4.559c.49.332 1.404.19 2.16-.333-1.238-1.786-4.395-4.943-4.395-4.943s.297-.218 1.16-.11c0 0 2.641 2.49 3.258 3.096.154.135.328.246.515.33 0 0 1.372-.052 1.756-.58 0 0 .079-.249-.27-.605-.347-.356-2.594-2.467-2.594-2.467s2.053-.135 2.595-.107c0 0 3.591 4.713 6.696 9.394 0 0 4.806 6.661 3.956 8.13-.25.349-2.144-.407-2.144-.407v-.012zm2.907.887c1.187-2.638-5.221-10.725-5.221-10.725s-4.814-6.63-6.044-7.699c0 0-1.187 0-3.061.147 0 0-3.782-3.79-6.179-5.335 0 0-.395-.036-1.111.84 0 0-5.87-4.721-13.053-7.311 0 0 19.555-5.98 27.94.87 0 0 22.764 12.722 12.95 28.8-15.295 12.143-35.202 11.347-35.202 11.347-7.602-17.556-21.043-29.03-21.043-29.03s4.901.492 8.07.31c3.168-.183 3.405-3.188 1.914-5.77a7.577 7.577 0 0 0-4.007-3.304c.538-.673 6.036-.792 6.036-.792 4.062 1.22 10.145 4.5 10.145 4.5.454.782.998 1.508 1.622 2.162a75.795 75.795 0 0 1 2.856 3.425c.23.305.296.396.32.416.024.02-1.349-.031-1.977.278-.63.308 1.483 1.936 3.476 3.73 1.994 1.794 5.581 5.473 9.493 8.123a49.323 49.323 0 0 0 9.196 4.958l.218.111s2.112 1.169 2.662-.04v-.011zm-14.473-13.165c.166.19-.482.396-.969.33-.486-.068-2.883-2.995-4.798-4.73-.494-.352-2.013.745-3.635-1.469-1.49-2.012-3.29-3.422-3.267-4.416 0 0 .241-.835 2.769.994 2.527 1.83 7.855 6.816 9.9 9.303v-.012zm-6.724-9.437s.431-.606.728-.582c2.769 2.138 8.658 7.968 8.658 7.968a7.456 7.456 0 0 1-1.32.281s-5.432-5.057-5.827-5.414c-.396-.356-.945.281-.945.281l-1.294-2.534z"/><path fill="#000212" fill-rule="nonzero" d="M79.356 61.485C71.117 70.257 62.878 77.362 57.65 78.76c-5.229 1.398-7.12 1.453-11.371 1.188-4.253-.265-7.437.13-14.014 2.147-6.578 2.015-21.755 3.342-24.714 2.526 0 0 7.065 2.377 18.318.123 11.253-2.253 15.062-4.162 19.61-3.406 4.55.757 11.19 1.01 18.935-4.796 7.745-5.806 18.317-17.394 22.375-20.42 4.059-3.025 7.191-2.966 8.176-2.526 0 0-7.377-6.935-14.449-7.248-2.579.06-4.173.82-5.039 1.513 0 0-5.407.82-13.337 12.986-3.074 1.762-5.166 1.188-9.035 1.01-3.868-.178-9.346.69-14.017 8.447-1.907 2.523-8.485 5.858-19.548 6.496-2.732.19-5.478.023-8.168-.496-3.275-.613-4.074-1.465-5.537-1.136 0 0 10.573 5.045 22.008 1.893 11.435-3.153 10.204-5.545 12.17-7.061 1.966-1.517 1.353-1.894 11.617-2.206 5.72-.396 7.685-3.093 10.205-5.866 2.52-2.772 5.225-8.388 10.945-12.043 5.719-3.656 12.657-3.216 20.41 3.03 0 0-4.245-1.64-13.833 8.57zm-26.433 5.489c-5.475.186-9.778-.507-12.234 1.762 0 0 4.675-5.295 9.22-5.738 4.544-.444 9.223.316 11.075-.82-.008 0-2.591 4.606-8.061 4.796z"/><path fill="#000212" d="M81.983 115.83c-1.393-.397-2.508-.971-3.623-1.312-1.116-.34-1.666-.174-2.77-2.63-1.103-2.455-2.392-5.195-2.17-5.77.22-.574 2.729-.566 3.06-.17.333.396-.331 1.255 1.508 3.94 1.839 2.686 3.283 3.26 4.287 3.32.447-.06 0 0-1.186-1.15-1.187-1.148-1.729-2.736-2.231-4.165-.502-1.43-1.112-2.745-.226-2.745.886 0 1.583.17 1.84.919.257.748 1.673 3.37 4.232 3.651.289.029.58-.03.835-.17 0 0-2.449-.226-3.283-1.945-1.527-3.136-1.072-2.459-3.121-3.536-1.946-1.03-4.952-.745-6.57-.396-1.618.348-1.784.633-.332 3.83 1.451 3.196 3.508 6.11 4.117 6.732.61.622 1.226 1.715 3.066 2.345 1.839.63 4.79.225 6.514-.685-.72-.511-2.57.336-3.947-.064zm2.282-14.373c.38-2.626.953-5.22 1.713-7.762.327-.852.519-1.75.57-2.662 0 0-2.437 3.244-3.838 12.396 0 0 .463 1.49.883 1.913.419.424.466-2.127.672-3.885zm17.32 7.192c.447-.74 1.725-3.596 1.725-3.596 8.75 5.196 20.5 8.392 25.793 1.137 5.292-7.256 2.95-16.163 2.95-16.163 1.393-.285 1.836 1.145 1.836 1.145s.06-2.174-.886-3.596c-.945-1.422-3.734-.974-3.734-.974-.221.118.281.396.281.396.791.166.83.574 1.278 1.14 2.567 8.86-.835 19.477-8.963 21.081-8.129 1.604-18.333-5.897-18.333-5.897a5.864 5.864 0 0 1 .443-2.174c.447-.91 1.499-1.766 1.447-2.681-2.452 1.426-5.68 6.336-5.735 7.251.17 2 1.396 3.145 1.899 2.931zm-16.284-2.72c.158.902.791.791.791.791s-.099-3.14.471-5.216c.57-2.075.415-2.772.415-2.772s-1.416 4.432-1.677 7.196z"/><path fill="url(#q)" d="M102.74 58.21c1.231-1.715 4.779-6.206 5.143-6 .79.657 2.812 5.053 2.812 5.053s-1.68-.61-2.769-.15c-1.087.46-3.591 3.905-3.591 3.905-.771-1.422-.97-1.96-1.594-2.808z" transform="translate(3.955 14.653)"/></g></g></svg>